<?xml version="1.0" encoding="utf-8"?>
<!-- Generator: Adobe Illustrator 21.0.0, SVG Export Plug-In . SVG Version: 6.00 Build 0)  -->
<svg version="1.1" xmlns="http://www.w3.org/2000/svg" xmlns:xlink="http://www.w3.org/1999/xlink" x="0px" y="0px"
	 viewBox="0 0 113.3 29.8" style="enable-background:new 0 0 113.3 29.8;" xml:space="preserve">
<style type="text/css">
	.st0{fill:#FFFFFF;}
	.st1{fill:none;stroke:#FFFFFF;stroke-width:0.5;stroke-miterlimit:10;}
</style>
<g id="Layer_2">
</g>
<g id="Layer_1">
	<g>
		<path class="st0" d="M50.9,10.7c-2.1,9.1-3.3,8.4-3.7,8c-0.2-0.2-0.8-1.6-0.1-5.2c0.2-1.1,0.4-2.6,0.3-4.1c-0.2-1.3-2.1-2.4-3-1.5
			c-0.6,0.6-1.8,1.9-2.7,4.6c0-0.3,0.1-2,0.3-2.7c0.2-0.9-0.5-1.2-1.3-1.6c-0.2-0.2-0.8,0-0.8,0.4c-0.2,0.7-0.3,1.4-0.4,2.2
			c0,0,0,0,0,0c-1.6,4.9-3.7,5.2-4.2,5c-0.5-0.3-1.5-0.1-1.6-3.2c0.8,0.1,3-0.8,2.9-3.2C36.5,8,35.2,8.1,34.5,8
			c-1.7,0-2.7,1.2-3.1,2.7c0,0,0,0,0,0s-1.4,8.7-3.5,8.3c0,0-1-0.1-0.5-3.8c0.2-1.4,0.4-1.7,0.4-3.3c0.1-1-0.9-1.4-1.7-0.9
			c-0.6,0.5-2.7,0.8-3.1-0.4c0.5-1.1,1.6-2.5,0.5-3.4c-0.7-0.6-1.8-0.2-2.2,1.1c-0.4,1.3,0.1,2.1,0.6,3.1c-0.8,3-2.2,5.1-3.2,5.7
			c-0.2,0.1-0.9,0.4-0.5-3.1c0.2-0.6-0.2-1.1-0.7-1.5c-0.3-0.3-0.9-0.1-1.2,1.5c-0.2,0.9-1,2-1.7,2.1c-0.6,0-0.4-5.1,1.7-7.2
			c0,0,0.8-0.6,1,2.6l0.5-0.2c0.1-0.7-0.6-4.3-3.2-3.1c-1.4,0.6-2.6,4.3-2.4,6.7C10.8,18,9.3,18,8.9,17.9c-1.4-0.2-3.3-2.7-4.9-6.6
			c1.5-0.8,4.4-2.8,7.7-9.7c0.2-0.6-0.3-1.1-0.6-0.4c-3.8,6.9-6.4,9.1-7.7,9c0-0.9,0.8-6.7-0.8-8.1C1,0.8,0.2,1.2,1,4.6
			C1.7,7.9,0.1,17.1,0,19c-0.1,0.8-0.1,1.1,0.9,1.5c0.6,0.1,1.5,0.2,1.6-0.5c0.2-1.1,0.5-5.8,0.6-6.7c0.7,2.3,2.8,6.2,5.2,6.4
			c1.3,0.1,3-1.1,4.2-3.5c0.2,0.4,0.5,0.6,0.9,0.7c0.3,0.2,1.6,0.3,2.8-1.2c0.2,0.4,0.3,3.2,2.3,2.3c0.5-0.5,2.4-0.8,3.9-6
			c0.7,0.5,1.8,0.7,3,0.3c-0.3,1.1-1.3,4.6-0.1,6.9c0.4,0.7,1.7,1.3,3.1,0.6c0.7-0.4,1.9-0.9,2.9-5.5c0.1,0.4,0.2,0.7,0.3,1
			c0.7,1.4,5.5,2.9,7.7-2.9c0,0.6,0.1,1.3,0.2,1.9c0.2,0.5,0.3,1.4,1.8,1.2c0.3-0.1,0.7-0.3,0.3-1.6c0.2-0.3,1.5-4.4,3.1-5.8
			c1.1-0.7-0.2,3.5-0.2,4.6c-0.2,1.4,0,5.5,1.4,7c0.5,0.8,3.4,1.8,5.3-8.6c0,0,0-0.2-0.1-0.4C51.3,10.8,50.9,10.7,50.9,10.7z
			 M22.2,8.1c0.6-0.7,0.9,0,0.9,0c0.2,0.6-0.2,0.9-0.7,2.1C22,9.6,21.8,8.8,22.2,8.1z M34.6,8.9c0.3-0.2,1.1-0.2,1.1,0.9
			c-0.2,1.8-1.2,2.1-2.1,2.1C33.8,10.3,34.1,9.6,34.6,8.9z"/>
		<path class="st0" d="M69.9,9.9c-0.9,1.9-2.1,0.7-2.7,0.2c-0.3-0.2-2.8-0.9-4.6,1.1c-0.3,0.3,0,1,0.6,0.6c0.6-0.4,1.9-1.6,3.1-0.3
			c-0.3,1.6-1,5.6-5.1,5.9c-0.9,0-3.3-3.9,1.9-8.6c0.2-0.4,0.4-1-0.1-1.2c-1.1,1-2.2,0.7-3.1,0.4c-0.5-0.3-2-4.1,2.3-7
			c0.3-0.2,2.7,0.5,0.8,2.9c-0.2,0.4,0.3,1,0.7,0.5c1.1-1.4,1.8-4.4-2-4.4c-1.8-0.1-7,3.3-3.5,8c0.3,0.3,0.7,0.7,1,1.1
			c-2.2,2.1-2.4,5.8-0.6,8c1,1.4,7.1,3.2,8.7-5.2c0.4,0.1,2.6,0.5,3.3-1.4C70.7,9.8,70.1,9.4,69.9,9.9z"/>
		<path class="st0" d="M113.1,10.8c0,0-0.4-0.1-0.4-0.1c-2.1,9.1-3.3,8.4-3.7,8c-0.2-0.2-0.8-1.6-0.1-5.2c0.2-1.1,0.4-2.6,0.3-4.1
			c-0.2-1.3-2.1-2.4-3-1.5c-0.6,0.6-1.8,1.9-2.7,4.6c0-0.3,0.1-2,0.3-2.7c0.2-0.9-0.5-1.2-1.3-1.6c-0.2-0.2-0.8,0-0.8,0.4
			c-0.2,0.7-0.3,1.4-0.4,2.1c0,0,0,0.1,0,0.1c-0.8,3.5-2.3,5.8-3.4,6.5c-0.2,0.1-0.9,0.4-0.5-3.1c0.2-0.6-0.2-1.1-0.7-1.5
			c-0.3-0.3-0.9-0.1-1.2,1.5c-0.2,0.9-1,2-1.7,2.1c-0.6,0-0.4-5.1,1.7-7.2c0,0,0.8-0.6,1,2.6l0.5-0.2c0.1-0.7-0.6-4.3-3.2-3.1
			c-0.7,0.3-1.3,1.3-1.7,2.5c0,0,0,0,0,0c-0.8,0.6-2.4,1.1-3.1,0.9c0-0.3,0.2-2.4-0.2-3.4c-1.9-7.4-9.3-7.3-13-4.4
			c0,0,0,0.7,0.6,0.3c1.5-0.9,3.3-1.7,5.1-1.4c2,0.2,5.5,3.6,5,9.1c-2.1,0.3-6,1.8-6.3,2c0.2-1.1,0.7-5.1,0.8-6.6
			c0.2-0.7-1.5-1.9-2.2-2.1c0,0.3-0.3,3.4-0.4,5.2c-0.2,1.3-0.1,2.5,0.2,3.6c0.2,0.6,0.8,0.1-0.5,1.2c-0.3,0.3-2.8,2.7,0.5,3.9
			c0.9,0.5,7.7,1.7,10.2-6.7c0.6,0,2.1-0.3,3-0.7c-0.6,2.4-0.6,5.1,0.9,5.3c0.3,0.2,1.6,0.3,2.8-1.2c0.2,0.4,0.3,3.2,2.3,2.3
			c0.5-0.5,2.1-0.7,3.6-4.9c0,0.4,0.1,0.8,0.2,1.2c0.2,0.5,0.3,1.4,1.8,1.2c0.3-0.1,0.7-0.3,0.3-1.6c0.2-0.3,1.5-4.4,3.1-5.8
			c1.1-0.7-0.2,3.5-0.2,4.6c-0.2,1.4,0,5.5,1.4,7c0.5,0.8,3.4,1.8,5.3-8.6C113.3,11.2,113.2,11,113.1,10.8z M77.7,17.2
			c-0.2-0.8,4.1-4.2,8.5-4.6C85.6,18.4,79.2,20.5,77.7,17.2z"/>
	</g>
	<line class="st1" x1="40.3" y1="27.6" x2="14.7" y2="27.6"/>
	<line class="st1" x1="98.6" y1="27.6" x2="72.9" y2="27.6"/>
	<g>
		<path class="st0" d="M47.5,29.5c0.5-0.6,1.1-1.2,1.6-1.7c0.4-0.5,0.7-0.9,0.7-1.2c0-0.4-0.2-0.8-0.9-0.8c-0.4,0-0.7,0.3-0.9,0.5
			c-0.1,0.1-0.1,0.1-0.2,0l-0.1-0.1c0,0-0.1-0.1,0-0.2c0,0,0.5-0.6,1.2-0.6c0.9,0,1.4,0.6,1.4,1.3c0,0.6-0.4,1-0.8,1.5
			c-0.4,0.4-0.8,0.9-1.3,1.3h1.9c0.1,0,0.1,0.1,0.1,0.1v0.2c0,0.1-0.1,0.1-0.1,0.1h-2.5c-0.1,0-0.1-0.1-0.1-0.1V29.5z"/>
		<path class="st0" d="M53,27.5c0-1.4,0.6-2.3,1.6-2.3c1,0,1.6,0.9,1.6,2.3c0,1.4-0.6,2.3-1.6,2.3C53.6,29.8,53,29,53,27.5z
			 M55.8,27.5c0-1.2-0.4-1.9-1.1-1.9c-0.7,0-1.1,0.7-1.1,1.9c0,1.2,0.4,1.9,1.1,1.9C55.3,29.4,55.8,28.7,55.8,27.5z"/>
		<path class="st0" d="M59.6,26.1l-0.5,0.4c-0.1,0-0.1,0-0.2,0l-0.1-0.1c0-0.1,0-0.1,0-0.1l0.9-0.9H60c0.1,0,0.1,0.1,0.1,0.1v4.2
			c0,0.1-0.1,0.1-0.1,0.1h-0.2c-0.1,0-0.1-0.1-0.1-0.1V26.1z"/>
		<path class="st0" d="M63.4,29.6l1.8-3.8H63c-0.1,0-0.1-0.1-0.1-0.1v-0.2c0-0.1,0.1-0.1,0.1-0.1h2.6c0.1,0,0.1,0.1,0.1,0.1v0
			l-1.9,4.1c0,0.1-0.1,0.2-0.2,0.2h-0.2C63.4,29.8,63.4,29.7,63.4,29.6L63.4,29.6z"/>
	</g>
</g>
</svg>
